<?xml version="1.0" standalone="no"?>
<!DOCTYPE svg PUBLIC "-//W3C//DTD SVG 20010904//EN"
 "http://www.w3.org/TR/2001/REC-SVG-20010904/DTD/svg10.dtd">
<svg version="1.0" xmlns="http://www.w3.org/2000/svg"
 width="700.000000pt" height="700.000000pt" viewBox="0 0 700.000000 700.000000"
 preserveAspectRatio="xMidYMid meet">
<metadata>
Created by potrace 1.14, written by Peter Selinger 2001-2017
</metadata>
<g transform="translate(0.000000,700.000000) scale(0.100000,-0.100000)"
fill="#000000" stroke="none">
<path d="M907 4804 c-1 -1 -34 -5 -73 -8 -276 -25 -544 -198 -659 -426 -93
-184 -106 -420 -36 -628 37 -108 81 -179 161 -262 116 -120 260 -197 457 -245
59 -14 131 -32 158 -39 28 -8 95 -26 150 -41 302 -81 429 -228 418 -484 -8
-197 -137 -354 -345 -422 -60 -20 -94 -24 -188 -24 -130 1 -208 21 -311 82
-149 86 -215 207 -224 407 -6 118 -9 120 -191 123 -198 4 -213 -7 -208 -158
13 -369 246 -673 611 -795 43 -14 87 -28 98 -30 110 -19 157 -22 267 -19 70 2
131 6 136 9 5 3 24 8 43 11 94 17 233 75 339 143 67 43 195 169 238 237 124
190 164 419 118 660 -50 260 -237 468 -531 590 -72 30 -217 72 -376 109 -322
76 -446 180 -464 390 -16 191 80 336 263 397 52 17 91 23 172 23 135 1 180 -7
260 -45 145 -70 214 -179 219 -343 4 -121 14 -127 203 -127 138 0 142 1 167
25 22 22 25 34 25 98 0 174 -38 296 -134 438 -113 166 -314 294 -525 335 -55
10 -231 25 -238 19z"/>
<path d="M3475 4761 c-53 -22 -50 35 -51 -1075 -2 -1138 0 -1104 -65 -1226
-38 -71 -84 -121 -152 -164 -89 -56 -168 -76 -282 -72 -200 9 -378 143 -437
331 -5 17 -13 75 -17 129 -7 91 -10 101 -35 123 -26 22 -35 23 -167 23 l-141
0 -30 -31 -31 -30 6 -107 c14 -270 136 -501 349 -660 158 -119 319 -170 533
-170 144 1 260 26 387 85 99 47 152 84 232 161 103 100 168 214 214 377 l25
90 2 1082 2 1081 -23 29 -22 28 -139 2 c-76 1 -147 -1 -158 -6z"/>
<path d="M4400 4757 c-13 -7 -30 -24 -37 -37 -10 -20 -13 -320 -13 -1413 l0
-1389 28 -27 28 -28 139 2 c151 1 176 9 194 55 6 15 10 233 9 555 0 443 2 530
13 533 8 1 207 -240 459 -556 245 -308 457 -566 471 -575 20 -13 57 -16 191
-16 151 0 169 2 192 20 29 23 43 80 28 112 -5 12 -83 112 -174 222 -90 110
-309 378 -487 595 -178 217 -342 417 -365 444 -22 27 -46 56 -53 65 -25 33
-14 65 55 152 37 48 119 153 183 235 129 166 243 311 262 334 7 8 60 76 118
150 58 74 155 199 217 277 61 78 117 154 125 170 19 38 12 83 -19 111 -24 21
-34 22 -179 22 l-155 0 -29 -27 c-16 -16 -127 -156 -247 -313 -181 -237 -298
-389 -342 -445 -4 -5 -58 -76 -120 -157 -112 -146 -128 -165 -139 -155 -3 3
-5 234 -5 514 0 539 -1 548 -47 573 -28 15 -270 13 -301 -3z"/>
<path d="M6582 4750 c-16 -10 -33 -23 -36 -29 -9 -13 -9 -2002 -1 -2024 16
-40 52 -49 198 -50 l140 -1 28 32 29 32 0 993 c0 971 0 993 -20 1025 -11 17
-25 33 -32 33 -7 1 -72 3 -144 4 -113 3 -136 1 -162 -15z"/>
<path d="M6513 2346 l-28 -24 -1 -188 c0 -104 4 -201 9 -217 18 -53 34 -57
249 -57 194 0 197 0 225 24 l28 24 1 189 c0 103 -4 200 -9 216 -18 53 -33 57
-249 57 -193 0 -197 0 -225 -24z"/>
</g>
</svg>
