<?xml version="1.0" encoding="utf-8"?>
<!-- Generator: Adobe Illustrator 24.2.3, SVG Export Plug-In . SVG Version: 6.00 Build 0)  -->
<svg version="1.1" id="Layer_1" xmlns="http://www.w3.org/2000/svg" xmlns:xlink="http://www.w3.org/1999/xlink" x="0px" y="0px"
	 viewBox="0 0 38 38" style="enable-background:new 0 0 38 38;" xml:space="preserve">
<style type="text/css">
	.st0{fill:#101010;}
</style>
<path id="Path_68" class="st0" d="M25.3,3.6H12.7C7.1,3.6,2.5,8.2,2.5,13.8v11.1c0,5.6,4.6,10.2,10.2,10.2h12.7
	c5.6,0,10.2-4.6,10.2-10.2V13.8C35.5,8.2,31,3.6,25.3,3.6 M33.3,24.9c0,4.4-3.5,7.9-7.9,7.9H12.7c-4.4,0-7.9-3.5-7.9-7.9V13.8
	c0-4.4,3.5-7.9,7.9-7.9h12.7c4.4,0,7.9,3.5,7.9,7.9V24.9z"/>
<path id="Path_69" class="st0" d="M19,10.3c-5,0-9.1,4.1-9.1,9.1s4.1,9.1,9.1,9.1s9.1-4.1,9.1-9.1C28.1,14.4,24,10.3,19,10.3
	 M19,26.2c-3.8,0-6.8-3-6.8-6.8s3-6.8,6.8-6.8s6.8,3,6.8,6.8C25.8,23.1,22.8,26.2,19,26.2"/>
<path id="Path_70" class="st0" d="M27.9,8.7c-1,0-1.9,0.8-1.9,1.9s0.8,1.9,1.9,1.9c1,0,1.9-0.8,1.9-1.9C29.8,9.5,29,8.7,27.9,8.7"/>
</svg>
