<?xml version="1.0" encoding="utf-8"?>
<!-- Generator: Adobe Illustrator 24.2.3, SVG Export Plug-In . SVG Version: 6.00 Build 0)  -->
<svg version="1.1" id="Layer_1" xmlns="http://www.w3.org/2000/svg" xmlns:xlink="http://www.w3.org/1999/xlink" x="0px" y="0px"
	 viewBox="0 0 233 78" style="enable-background:new 0 0 233 78;" xml:space="preserve">
<style type="text/css">
	.st0{fill:none;}
	.st1{fill:none;stroke:#101010;stroke-width:1.5;}
	.st2{fill:#101010;}
	.st3{enable-background:new    ;}
</style>
<g id="Rectangle_59" transform="translate(27 9522)">
	<path class="st0" d="M-27-9522h222c6.1,0,11,4.9,11,11v5c0,6.1-4.9,11-11,11H-27l0,0V-9522L-27-9522z"/>
	<path class="st1" d="M-25.5-9521.2H195c5.7,0,10.2,4.6,10.2,10.2v5c0,5.7-4.6,10.2-10.2,10.2l0,0H-25.5c-0.4,0-0.8-0.3-0.8-0.8v-24
		C-26.2-9520.9-25.9-9521.2-25.5-9521.2z"/>
</g>
<g id="Rectangle_60" transform="translate(27 9547.5)">
	<path class="st0" d="M-27-9522h222c6.1,0,11,4.9,11,11v5c0,6.1-4.9,11-11,11H-27l0,0V-9522L-27-9522z"/>
	<path class="st1" d="M-25.5-9521.2H195c5.7,0,10.2,4.6,10.2,10.2v5c0,5.7-4.6,10.2-10.2,10.2l0,0H-25.5c-0.4,0-0.8-0.3-0.8-0.8v-24
		C-26.2-9520.9-25.9-9521.2-25.5-9521.2z"/>
</g>
<g id="Path_176" transform="translate(27 9573)">
	<path class="st0" d="M-27-9522h222c6.1,0,11,4.9,11,11v5c0,6.1-4.9,11-11,11H-27V-9522z"/>
	<path class="st2" d="M-25.5-9520.5v24H195c5.2,0,9.5-4.3,9.5-9.5v-5c0-5.2-4.3-9.5-9.5-9.5H-25.5 M-27-9522h222c6.1,0,11,4.9,11,11
		v5c0,6.1-4.9,11-11,11H-27V-9522z"/>
</g>
<g class="st3">
	<path class="st2" d="M7.8,17.8c-0.2-0.5-0.3-0.9-0.3-1.4v-0.3c0-0.1,0-0.2,0.1-0.2c0.1-0.1,0.2-0.1,0.3-0.1h1c0.1,0,0.2,0,0.3,0.1
		s0.1,0.2,0.1,0.3v0.3c0,0.3,0.1,0.6,0.2,0.8c0.1,0.3,0.3,0.5,0.5,0.6c0.2,0.2,0.5,0.3,0.7,0.4c0.3,0.1,0.6,0.2,0.9,0.2
		s0.6-0.1,0.9-0.2c0.3-0.1,0.5-0.2,0.8-0.4c0.2-0.2,0.4-0.4,0.5-0.6c0.1-0.2,0.2-0.5,0.2-0.8c0-0.4-0.1-0.7-0.2-1
		c-0.1-0.3-0.3-0.5-0.6-0.6c-0.2-0.1-0.4-0.2-0.7-0.3s-0.7-0.2-1.2-0.3l-0.3-0.1C10,13.9,9.3,13.5,8.7,13c-0.6-0.6-0.9-1.4-0.9-2.3
		c0-0.5,0.1-1,0.3-1.4C8.4,8.8,8.7,8.4,9,8.1c0.3-0.3,0.7-0.5,1.2-0.7c0.4-0.2,0.9-0.2,1.4-0.2c0.5,0,1,0.1,1.5,0.3
		c0.5,0.2,0.9,0.4,1.2,0.7c0.3,0.3,0.6,0.7,0.8,1.1s0.3,0.8,0.3,1.3v0.2c0,0.1,0,0.2-0.1,0.2c-0.1,0.1-0.2,0.1-0.3,0.1h-1
		c-0.1,0-0.2,0-0.2-0.1c-0.1-0.1-0.1-0.2-0.1-0.2v-0.2c0-0.5-0.2-1-0.7-1.3C12.6,9.1,12.1,9,11.6,9c-0.4,0-0.7,0.1-1,0.2
		S10,9.5,9.9,9.8s-0.3,0.5-0.3,0.9c0,0.4,0.1,0.7,0.2,0.9c0.2,0.2,0.4,0.4,0.7,0.6c0.3,0.1,0.6,0.2,0.9,0.3l0.9,0.2
		c1.1,0.3,1.9,0.7,2.5,1.3c0.6,0.6,0.9,1.4,0.9,2.4c0,0.6-0.1,1.1-0.3,1.5s-0.5,0.9-0.9,1.2c-0.4,0.3-0.8,0.6-1.3,0.7
		s-1,0.3-1.5,0.3c-0.6,0-1.1-0.1-1.6-0.3S9.1,19.4,8.7,19S8,18.3,7.8,17.8z"/>
	<path class="st2" d="M17.6,23.5c-0.1-0.1-0.1-0.2-0.1-0.3V11.4c0-0.1,0-0.2,0.1-0.3c0.1-0.1,0.2-0.1,0.3-0.1h0.6
		c0.1,0,0.2,0,0.2,0.1c0,0,0,0,0.1,0.1s0.1,0.1,0.2,0.1c0.1,0,0.1,0.1,0.2,0.1c0.1,0,0.2,0,0.2,0c0.1,0,0.2-0.1,0.3-0.1
		c0.1-0.1,0.2-0.1,0.2-0.1c0.3-0.2,0.8-0.3,1.3-0.3c0.5,0,0.9,0.1,1.3,0.3s0.8,0.4,1.1,0.7c0.3,0.3,0.5,0.7,0.7,1.1s0.3,0.9,0.3,1.3
		c0,0.4,0,0.8,0,1.4s0,1-0.1,1.4s-0.1,0.7-0.3,1.1c-0.4,0.9-1,1.5-1.8,1.8c-0.4,0.2-0.8,0.3-1.3,0.3c-0.2,0-0.4,0-0.5-0.1
		c-0.2,0-0.3-0.1-0.5-0.2c-0.1-0.1-0.3-0.1-0.4-0.2c-0.1,0-0.2-0.1-0.3-0.1c-0.1,0-0.2,0-0.3,0.1s-0.1,0.2-0.1,0.3v3.1
		c0,0.1,0,0.2-0.1,0.3c-0.1,0.1-0.2,0.1-0.3,0.1h-0.9C17.7,23.6,17.6,23.6,17.6,23.5z M19.2,13.3c-0.2,0.3-0.3,0.6-0.3,0.9
		c0,0.3,0,0.7,0,1.3V16c0,0.4,0,0.8,0.1,1.1s0.3,0.6,0.5,0.9c0.4,0.4,0.9,0.5,1.5,0.5c0.4,0,0.8-0.1,1.1-0.2s0.5-0.4,0.7-0.7
		s0.3-0.6,0.3-0.9c0-0.3,0-0.7,0-1.3v-0.6c0-0.4,0-0.8-0.1-1.1s-0.2-0.6-0.5-0.8c-0.4-0.4-0.9-0.5-1.5-0.5c-0.4,0-0.8,0.1-1.1,0.2
		S19.4,13.1,19.2,13.3z"/>
	<path class="st2" d="M26.7,18.1c-0.2-0.4-0.3-0.9-0.3-1.3c0-0.4,0-0.8,0-1.4s0-1,0.1-1.4s0.1-0.7,0.3-1.1c0.4-0.9,1-1.5,1.9-1.8
		c0.4-0.2,0.9-0.3,1.5-0.3c0.5,0,1,0.1,1.5,0.3s0.8,0.4,1.2,0.7c0.3,0.3,0.6,0.7,0.8,1.1s0.3,0.9,0.3,1.3c0,0.4,0,0.8,0,1.4
		s0,1-0.1,1.4s-0.1,0.7-0.3,1.1c-0.4,0.9-1,1.5-1.9,1.8c-0.4,0.2-0.9,0.3-1.5,0.3c-0.5,0-1-0.1-1.5-0.3s-0.8-0.4-1.2-0.7
		C27.1,18.9,26.9,18.5,26.7,18.1z M28.3,13.3c-0.2,0.3-0.3,0.6-0.3,0.9c0,0.3,0,0.7,0,1.3v0.6c0,0.4,0,0.8,0.1,1.1s0.3,0.6,0.5,0.8
		c0.4,0.4,0.9,0.5,1.5,0.5c0.4,0,0.8-0.1,1.1-0.2s0.5-0.4,0.7-0.7c0.2-0.3,0.3-0.6,0.3-0.9c0-0.3,0-0.7,0-1.3v-0.6
		c0-0.4,0-0.8-0.1-1.1c-0.1-0.3-0.3-0.6-0.5-0.8c-0.4-0.4-0.8-0.5-1.5-0.5c-0.4,0-0.8,0.1-1.1,0.2S28.4,13.1,28.3,13.3z"/>
	<path class="st2" d="M35.6,19.9c-0.1-0.1-0.1-0.2-0.1-0.3v-12c0-0.1,0-0.2,0.1-0.3c0.1-0.1,0.2-0.1,0.3-0.1h0.9
		c0.1,0,0.2,0,0.3,0.1c0.1,0.1,0.1,0.2,0.1,0.3v12c0,0.1,0,0.2-0.1,0.3C36.9,20,36.9,20,36.8,20h-0.9C35.8,20,35.7,20,35.6,19.9z"/>
	<path class="st2" d="M39.6,18.1c-0.2-0.4-0.3-0.9-0.3-1.3c0-0.4,0-0.8,0-1.4s0-1,0.1-1.4s0.1-0.7,0.3-1.1c0.4-0.9,1-1.5,1.9-1.8
		c0.4-0.2,0.9-0.3,1.5-0.3c0.5,0,1,0.1,1.5,0.3s0.8,0.4,1.2,0.7c0.3,0.3,0.6,0.7,0.8,1.1s0.3,0.9,0.3,1.3c0,0.4,0,0.8,0,1.4
		s0,1-0.1,1.4s-0.1,0.7-0.3,1.1c-0.4,0.9-1,1.5-1.9,1.8c-0.4,0.2-0.9,0.3-1.5,0.3c-0.5,0-1-0.1-1.5-0.3s-0.8-0.4-1.2-0.7
		C40,18.9,39.8,18.5,39.6,18.1z M41.2,13.3c-0.2,0.3-0.3,0.6-0.3,0.9c0,0.3,0,0.7,0,1.3v0.6c0,0.4,0,0.8,0.1,1.1s0.3,0.6,0.5,0.8
		c0.4,0.4,0.9,0.5,1.5,0.5c0.4,0,0.8-0.1,1.1-0.2s0.5-0.4,0.7-0.7c0.2-0.3,0.3-0.6,0.3-0.9c0-0.3,0-0.7,0-1.3v-0.6
		c0-0.4,0-0.8-0.1-1.1c-0.1-0.3-0.3-0.6-0.5-0.8c-0.4-0.4-0.8-0.5-1.5-0.5c-0.4,0-0.8,0.1-1.1,0.2S41.4,13.1,41.2,13.3z"/>
	<path class="st2" d="M48.7,18.1c-0.2-0.4-0.3-0.9-0.3-1.3c0-0.3,0-0.7,0-1.3c0-0.6,0-1.1,0.1-1.5s0.1-0.7,0.3-1.1
		c0.4-0.9,1-1.5,1.8-1.8c0.4-0.2,0.9-0.3,1.5-0.3c0.5,0,1,0.1,1.4,0.2s0.8,0.4,1.1,0.6c0.3,0.3,0.6,0.6,0.7,1
		c0.2,0.4,0.3,0.8,0.3,1.2c0,0.1,0,0.2-0.1,0.3s-0.1,0.1-0.2,0.1h-1c-0.1,0-0.2,0-0.2-0.1S53.9,14,53.9,14c0-0.3-0.1-0.5-0.2-0.8
		c-0.2-0.2-0.4-0.4-0.7-0.5c-0.3-0.1-0.6-0.2-1-0.2c-0.4,0-0.7,0.1-1,0.2s-0.5,0.4-0.7,0.7c-0.2,0.3-0.3,0.6-0.3,0.9
		c0,0.3,0,0.7,0,1.3V16c0,0.4,0,0.8,0.1,1.1c0.1,0.3,0.2,0.6,0.5,0.9c0.3,0.4,0.8,0.5,1.4,0.5c0.4,0,0.7-0.1,1-0.2
		c0.3-0.1,0.5-0.3,0.7-0.5c0.2-0.2,0.2-0.5,0.2-0.8c0-0.2,0.1-0.3,0.3-0.3h0.9c0.1,0,0.2,0,0.3,0.1c0.1,0.1,0.1,0.2,0.1,0.2
		c0,0.4-0.1,0.8-0.3,1.2c-0.2,0.4-0.4,0.7-0.7,1c-0.3,0.3-0.7,0.5-1.1,0.6s-0.9,0.2-1.4,0.2c-0.5,0-1-0.1-1.4-0.3s-0.8-0.4-1.1-0.7
		C49.2,18.9,48.9,18.5,48.7,18.1z M51.2,9.4c-0.1,0-0.1-0.1-0.2-0.2l-1.9-2c0,0-0.1-0.1-0.1-0.1C49,7,49,7,49.1,6.9s0.1-0.1,0.2-0.1
		h1.1c0.1,0,0.2,0,0.3,0.1c0.1,0,0.2,0.1,0.3,0.2L51.8,8c0.1,0,0.1,0.1,0.1,0.1c0,0,0.1,0,0.1-0.1l0.9-0.9C53,7.1,53.1,7,53.2,6.9
		s0.2-0.1,0.3-0.1h1.1c0.1,0,0.1,0,0.2,0.1s0.1,0.1,0.1,0.2c0,0.1,0,0.1-0.1,0.1l-1.9,2c-0.1,0.1-0.1,0.1-0.2,0.2s-0.2,0.1-0.3,0.1
		h-0.8C51.4,9.5,51.3,9.5,51.2,9.4z"/>
	<path class="st2" d="M57.6,19.9c-0.1-0.1-0.1-0.2-0.1-0.3v-8.3c0-0.1,0-0.2,0.1-0.3c0.1-0.1,0.2-0.1,0.3-0.1h0.8
		c0.1,0,0.2,0,0.3,0.1c0,0,0,0,0.1,0.1s0.1,0.1,0.2,0.1s0.1,0.1,0.2,0.1c0.1,0,0.2,0,0.3-0.1c0,0,0.1-0.1,0.2-0.1
		c0.1-0.1,0.2-0.1,0.3-0.2s0.2-0.1,0.4-0.1c0.2-0.1,0.4-0.1,0.8-0.1c0.5,0,1,0.1,1.4,0.2c0.4,0.2,0.8,0.4,1.1,0.7
		c0.3,0.3,0.5,0.7,0.7,1.1s0.2,0.9,0.2,1.4v5.4c0,0.1,0,0.2-0.1,0.3C64.5,20,64.4,20,64.3,20h-0.9c-0.1,0-0.2,0-0.3-0.1
		c-0.1-0.1-0.1-0.2-0.1-0.3v-5.4c0-0.4-0.1-0.7-0.3-1c-0.2-0.3-0.4-0.5-0.7-0.6s-0.6-0.2-1-0.2c-0.4,0-0.7,0.1-1,0.2
		c-0.3,0.1-0.5,0.3-0.7,0.6s-0.3,0.6-0.3,0.9v5.5c0,0.1,0,0.2-0.1,0.3C58.9,20,58.8,20,58.7,20h-0.9C57.7,20,57.6,20,57.6,19.9z"/>
	<path class="st2" d="M66.9,18.1c-0.2-0.4-0.3-0.9-0.3-1.3c0-0.4,0-0.8,0-1.4s0-1,0.1-1.4s0.1-0.7,0.3-1.1c0.4-0.9,1-1.5,1.9-1.8
		c0.4-0.2,0.9-0.3,1.5-0.3c0.5,0,1,0.1,1.5,0.3s0.8,0.4,1.2,0.7c0.3,0.3,0.6,0.7,0.8,1.1s0.3,0.9,0.3,1.3c0,0.4,0,0.8,0,1.4
		s0,1-0.1,1.4s-0.1,0.7-0.3,1.1c-0.4,0.9-1,1.5-1.9,1.8c-0.4,0.2-0.9,0.3-1.5,0.3c-0.5,0-1-0.1-1.5-0.3s-0.8-0.4-1.2-0.7
		C67.4,18.9,67.1,18.5,66.9,18.1z M68.5,13.3c-0.2,0.3-0.3,0.6-0.3,0.9c0,0.3,0,0.7,0,1.3v0.6c0,0.4,0,0.8,0.1,1.1s0.3,0.6,0.5,0.8
		c0.4,0.4,0.9,0.5,1.5,0.5c0.4,0,0.8-0.1,1.1-0.2s0.5-0.4,0.7-0.7c0.2-0.3,0.3-0.6,0.3-0.9c0-0.3,0-0.7,0-1.3v-0.6
		c0-0.4,0-0.8-0.1-1.1c-0.1-0.3-0.3-0.6-0.5-0.8c-0.4-0.4-0.8-0.5-1.5-0.5c-0.4,0-0.8,0.1-1.1,0.2S68.7,13.1,68.5,13.3z"/>
	<path class="st2" d="M75.8,18.6c-0.2-0.4-0.3-0.8-0.3-1.3v-0.2c0-0.1,0-0.2,0.1-0.2c0.1-0.1,0.2-0.1,0.2-0.1h0.9
		c0.1,0,0.2,0,0.3,0.1c0.1,0.1,0.1,0.2,0.1,0.2v0.2c0,0.3,0.1,0.5,0.2,0.6s0.3,0.3,0.5,0.4c0.3,0.2,0.7,0.3,1.3,0.3
		c0.6,0,1-0.1,1.3-0.3c0.2-0.1,0.3-0.2,0.4-0.4c0.1-0.2,0.2-0.4,0.2-0.6c0-0.3-0.2-0.6-0.6-0.8c-0.1-0.1-0.3-0.1-0.5-0.2
		s-0.4-0.1-0.7-0.2c0,0-0.1,0-0.2,0c-0.5-0.1-0.9-0.2-1.2-0.3s-0.7-0.2-0.9-0.4c-0.3-0.2-0.6-0.5-0.8-0.8c-0.2-0.3-0.3-0.7-0.3-1.2
		c0-0.4,0.1-0.7,0.3-1.1c0.2-0.3,0.4-0.6,0.8-0.8c0.3-0.2,0.6-0.4,1-0.5c0.4-0.1,0.8-0.2,1.2-0.2c0.4,0,0.8,0.1,1.2,0.2
		c0.4,0.1,0.7,0.3,1,0.5c0.3,0.2,0.6,0.5,0.8,0.9s0.3,0.7,0.3,1.1c0,0.1,0,0.2-0.1,0.3c-0.1,0.1-0.2,0.1-0.3,0.1h-0.9
		c-0.1,0-0.2,0-0.2-0.1c-0.1-0.1-0.1-0.2-0.1-0.3c0-0.3-0.1-0.6-0.4-0.8c-0.3-0.2-0.7-0.3-1.3-0.3c-0.4,0-0.7,0.1-0.9,0.2
		c-0.2,0.1-0.4,0.2-0.5,0.4c-0.1,0.2-0.2,0.3-0.2,0.5c0,0.3,0.1,0.6,0.4,0.7s0.7,0.3,1.2,0.4l0.2,0c0.5,0.1,0.9,0.2,1.2,0.3
		s0.6,0.2,0.9,0.4c0.4,0.2,0.7,0.5,0.9,0.8c0.2,0.3,0.3,0.8,0.3,1.3c0,0.5-0.1,0.9-0.3,1.2s-0.4,0.7-0.8,0.9
		c-0.3,0.2-0.7,0.4-1.1,0.5s-0.9,0.2-1.4,0.2c-0.5,0-0.9-0.1-1.3-0.2c-0.4-0.1-0.8-0.3-1.1-0.5C76.3,19.2,76,18.9,75.8,18.6z"/>
	<path class="st2" d="M83.6,12.6c-0.1-0.1-0.1-0.2-0.1-0.2v-0.9c0-0.1,0-0.2,0.1-0.3c0.1-0.1,0.2-0.1,0.3-0.1h1.3
		c0.1,0,0.2-0.1,0.2-0.2V8.1c0-0.1,0-0.2,0.1-0.2c0.1-0.1,0.2-0.1,0.3-0.1h0.9c0.1,0,0.2,0,0.3,0.1c0.1,0.1,0.1,0.2,0.1,0.2v2.8
		c0,0.1,0.1,0.2,0.2,0.2h2.1c0.1,0,0.2,0,0.3,0.1c0.1,0.1,0.1,0.2,0.1,0.3v0.9c0,0.1,0,0.2-0.1,0.2c-0.1,0.1-0.2,0.1-0.3,0.1h-2.1
		c-0.1,0-0.2,0.1-0.2,0.2v4.2c0,0.4,0.1,0.8,0.3,1c0.2,0.2,0.6,0.3,1.1,0.3h1c0.1,0,0.2,0,0.3,0.1s0.1,0.2,0.1,0.3v0.8
		c0,0.1,0,0.2-0.1,0.3C89.5,20,89.4,20,89.3,20h-1c-2,0-3.1-1-3.1-2.9v-4.2c0-0.1-0.1-0.2-0.2-0.2h-1.3
		C83.7,12.7,83.7,12.7,83.6,12.6z M90,9.1C90,9,89.9,8.9,89.9,8.8V7.7c0-0.1,0-0.2,0.1-0.3c0.1-0.1,0.2-0.1,0.3-0.1h1.3
		c0.1,0,0.2,0,0.3,0.1c0.1,0.1,0.1,0.2,0.1,0.3v1.1c0,0.2,0,0.4-0.1,0.6s-0.2,0.3-0.3,0.5L91,10.8c-0.1,0.2-0.3,0.3-0.5,0.3h-0.2
		c-0.1,0-0.2,0-0.3-0.1C90,10.9,90,10.8,90,10.7c0-0.1,0-0.2,0.1-0.2l0.6-1c0,0,0,0,0-0.1c0,0,0-0.1-0.1-0.1s-0.1-0.1-0.1-0.1h-0.1
		C90.2,9.2,90.1,9.2,90,9.1z"/>
</g>
<g class="st3">
	<path class="st2" d="M7.4,42.8c-0.2-0.5-0.3-0.9-0.3-1.5v-0.2c0-0.1,0-0.2,0.1-0.2c0.1-0.1,0.2-0.1,0.3-0.1h1c0.1,0,0.2,0,0.3,0.1
		s0.1,0.2,0.1,0.3v0.2c0,0.3,0.1,0.5,0.2,0.8s0.3,0.5,0.5,0.6c0.2,0.2,0.4,0.3,0.7,0.4s0.5,0.2,0.8,0.2c0.6,0,1.1-0.2,1.5-0.6
		c0.2-0.2,0.4-0.4,0.5-0.7c0.1-0.3,0.2-0.6,0.2-0.9v-8.5c0-0.1,0-0.2,0.1-0.3c0.1-0.1,0.2-0.1,0.3-0.1h1c0.1,0,0.2,0,0.3,0.1
		c0.1,0.1,0.1,0.2,0.1,0.3v8.6c0,0.6-0.1,1.1-0.3,1.5s-0.5,0.9-0.8,1.2c-0.3,0.3-0.8,0.6-1.2,0.8c-0.5,0.2-1,0.3-1.5,0.3
		c-0.5,0-1-0.1-1.5-0.3c-0.5-0.2-0.9-0.5-1.2-0.8C7.9,43.7,7.6,43.3,7.4,42.8z"/>
	<path class="st2" d="M16.8,43.4c-0.1-0.3-0.2-0.7-0.2-1.1c0-0.4,0.1-0.7,0.2-1c0.1-0.3,0.3-0.6,0.6-0.9c0.3-0.3,0.6-0.5,0.9-0.6
		s0.8-0.2,1.3-0.2h2.2c0.1,0,0.2-0.1,0.2-0.2v-0.7c0-0.5-0.1-0.8-0.4-1.1s-0.7-0.4-1.2-0.4c-0.2,0-0.4,0-0.5,0.1s-0.4,0.1-0.5,0.2
		c-0.2,0.1-0.3,0.2-0.4,0.4c-0.1,0.2-0.2,0.3-0.2,0.5c0,0.1,0,0.2-0.1,0.3c-0.1,0-0.2,0-0.3,0h-0.8c-0.2,0-0.4-0.1-0.4-0.4
		c0-0.4,0.1-0.8,0.3-1.1c0.2-0.3,0.4-0.6,0.8-0.8c0.3-0.2,0.6-0.4,1-0.5c0.4-0.1,0.8-0.2,1.2-0.2c1.1,0,1.9,0.2,2.4,0.7
		s0.9,1.2,0.9,2.2v5.9c0,0.1,0,0.2-0.1,0.3C23.3,45,23.3,45,23.2,45h-0.6c-0.1,0-0.2,0-0.2-0.1s-0.1-0.2-0.2-0.3
		c0-0.1-0.1-0.1-0.2-0.1c-0.1,0-0.2,0-0.3,0.1c-0.3,0.2-0.6,0.4-1,0.5c-0.2,0.1-0.5,0.1-0.8,0.1c-0.5,0-1-0.1-1.4-0.2
		s-0.8-0.4-1-0.6C17.1,44.1,16.9,43.8,16.8,43.4z M18.5,41.4c-0.2,0.2-0.3,0.5-0.3,0.9c0,0.4,0.1,0.8,0.4,1c0.3,0.2,0.7,0.4,1.2,0.4
		c0.8,0,1.4-0.2,1.7-0.5c0.4-0.3,0.5-0.8,0.5-1.4v-0.6c0-0.1-0.1-0.2-0.2-0.2h-2.3C19.1,41,18.7,41.1,18.5,41.4z"/>
	<path class="st2" d="M25.9,44.9c-0.1-0.1-0.1-0.2-0.1-0.3v-8.3c0-0.1,0-0.2,0.1-0.3C26,36,26,36,26.1,36h0.6c0.2,0,0.3,0.1,0.4,0.4
		c0,0,0,0.1,0,0.2c0,0.1,0,0.2,0.1,0.3s0.1,0.1,0.2,0.1c0.1,0,0.2-0.1,0.3-0.2c0.3-0.3,0.7-0.5,1.2-0.7c0.3-0.1,0.7-0.1,1.2-0.1h0.4
		c0.1,0,0.2,0,0.3,0.1c0.1,0.1,0.1,0.2,0.1,0.3v0.9c0,0.1,0,0.2-0.1,0.3c-0.1,0.1-0.2,0.1-0.3,0.1h-0.4c-0.4,0-0.7,0-1,0.1
		s-0.6,0.3-0.8,0.5c-0.3,0.2-0.5,0.5-0.6,0.9c-0.1,0.4-0.2,0.8-0.2,1.2v4.3c0,0.1,0,0.2-0.1,0.3C27.2,45,27.1,45,27,45h-0.9
		C26,45,26,45,25.9,44.9z"/>
	<path class="st2" d="M31.7,43.1c-0.2-0.4-0.3-0.9-0.3-1.3c0-0.4,0-0.8,0-1.4s0-1,0.1-1.4s0.1-0.7,0.3-1.1c0.4-0.9,1-1.5,1.9-1.8
		c0.4-0.2,0.9-0.3,1.5-0.3c0.5,0,1,0.1,1.5,0.3s0.8,0.4,1.2,0.7c0.3,0.3,0.6,0.7,0.8,1.1s0.3,0.9,0.3,1.3c0,0.4,0,0.8,0,1.4
		s0,1-0.1,1.4s-0.1,0.7-0.3,1.1c-0.4,0.9-1,1.5-1.9,1.8c-0.4,0.2-0.9,0.3-1.5,0.3c-0.5,0-1-0.1-1.5-0.3s-0.8-0.4-1.2-0.7
		C32.2,43.9,31.9,43.5,31.7,43.1z M33.3,38.3c-0.2,0.3-0.3,0.6-0.3,0.9c0,0.3,0,0.7,0,1.3v0.6c0,0.4,0,0.8,0.1,1.1s0.3,0.6,0.5,0.8
		c0.4,0.4,0.9,0.5,1.5,0.5c0.4,0,0.8-0.1,1.1-0.2s0.5-0.4,0.7-0.7c0.2-0.3,0.3-0.6,0.3-0.9c0-0.3,0-0.7,0-1.3v-0.6
		c0-0.4,0-0.8-0.1-1.1c-0.1-0.3-0.3-0.6-0.5-0.8c-0.4-0.4-0.8-0.5-1.5-0.5c-0.4,0-0.8,0.1-1.1,0.2S33.5,38.1,33.3,38.3z"/>
	<path class="st2" d="M40.9,44.9c-0.1-0.1-0.1-0.2-0.1-0.3v-8.3c0-0.1,0-0.2,0.1-0.3C41,36,41.1,36,41.2,36H42c0.1,0,0.1,0,0.2,0
		c0.1,0,0.1,0.1,0.2,0.1c0.1,0.1,0.1,0.1,0.1,0.1c0.1,0.1,0.1,0.1,0.3,0.1c0.1,0,0.2,0,0.3,0s0.2-0.1,0.3-0.1
		c0.1-0.1,0.2-0.1,0.2-0.1c0.2-0.1,0.3-0.2,0.5-0.2c0.2,0,0.4-0.1,0.6-0.1c0.4,0,0.8,0.1,1.2,0.3c0.3,0.2,0.6,0.4,0.8,0.6
		c0.1,0.1,0.3,0.2,0.4,0.2c0.1,0,0.2-0.1,0.3-0.2c0.2-0.2,0.5-0.4,0.8-0.6c0.4-0.2,0.8-0.3,1.3-0.3c0.5,0,1,0.1,1.4,0.2
		s0.7,0.4,1,0.7c0.3,0.3,0.5,0.7,0.6,1.1s0.2,0.9,0.2,1.4v5.4c0,0.1,0,0.2-0.1,0.3C52.4,45,52.3,45,52.2,45h-0.9
		c-0.1,0-0.2,0-0.3-0.1C51,44.8,51,44.7,51,44.6v-5.4c0-0.2,0-0.5-0.1-0.7s-0.2-0.4-0.3-0.6c-0.2-0.2-0.3-0.3-0.6-0.4
		c-0.2-0.1-0.5-0.1-0.7-0.1c-0.5,0-0.9,0.2-1.3,0.5c-0.1,0.2-0.3,0.3-0.3,0.5c-0.1,0.2-0.1,0.4-0.1,0.6v5.5c0,0.1,0,0.2-0.1,0.3
		C47.3,45,47.3,45,47.2,45h-0.9c-0.1,0-0.2,0-0.3-0.1c-0.1-0.1-0.1-0.2-0.1-0.3v-5.4c0-0.2,0-0.5-0.1-0.7s-0.2-0.4-0.4-0.6
		c-0.2-0.2-0.4-0.3-0.6-0.4c-0.2-0.1-0.4-0.1-0.7-0.1c-0.3,0-0.5,0-0.7,0.1c-0.2,0.1-0.4,0.2-0.6,0.4c-0.1,0.2-0.3,0.3-0.3,0.5
		c-0.1,0.2-0.1,0.4-0.1,0.6v5.5c0,0.1,0,0.2-0.1,0.3C42.3,45,42.2,45,42.1,45h-0.9C41.1,45,41,45,40.9,44.9z"/>
	<path class="st2" d="M54.6,34.2C54.6,34.2,54.6,34.1,54.6,34.2l1.4-2.1c0,0,0,0,0.1-0.1s0.1-0.1,0.1-0.1c0.1,0,0.1-0.1,0.2-0.1h1.4
		c0.1,0,0.1,0,0.2,0.1c0,0,0.1,0.1,0.1,0.2c0,0.1,0,0.1-0.1,0.1l-2,2c-0.1,0.1-0.2,0.1-0.2,0.2c-0.1,0-0.2,0-0.3,0h-0.7
		c-0.1,0-0.2,0-0.2-0.1C54.6,34.3,54.6,34.3,54.6,34.2z M55.1,44.9C55,44.8,55,44.7,55,44.6v-8.3c0-0.1,0-0.2,0.1-0.3
		c0.1-0.1,0.2-0.1,0.3-0.1h0.9c0.1,0,0.2,0,0.3,0.1c0.1,0.1,0.1,0.2,0.1,0.3v8.3c0,0.1,0,0.2-0.1,0.3C56.5,45,56.4,45,56.3,45h-0.9
		C55.3,45,55.2,45,55.1,44.9z"/>
	<path class="st2" d="M59.2,44.9c-0.1-0.1-0.1-0.2-0.1-0.3v-8.3c0-0.1,0-0.2,0.1-0.3c0.1-0.1,0.2-0.1,0.3-0.1h0.6
		c0.2,0,0.3,0.1,0.4,0.4c0,0,0,0.1,0,0.2c0,0.1,0,0.2,0.1,0.3s0.1,0.1,0.2,0.1c0.1,0,0.2-0.1,0.3-0.2c0.3-0.3,0.7-0.5,1.2-0.7
		C62.6,36,63,36,63.4,36h0.4c0.1,0,0.2,0,0.3,0.1c0.1,0.1,0.1,0.2,0.1,0.3v0.9c0,0.1,0,0.2-0.1,0.3c-0.1,0.1-0.2,0.1-0.3,0.1h-0.4
		c-0.4,0-0.7,0-1,0.1s-0.6,0.3-0.8,0.5c-0.3,0.2-0.5,0.5-0.6,0.9c-0.1,0.4-0.2,0.8-0.2,1.2v4.3c0,0.1,0,0.2-0.1,0.3
		C60.6,45,60.5,45,60.4,45h-0.9C59.4,45,59.3,45,59.2,44.9z"/>
	<path class="st2" d="M64.9,43.4c-0.1-0.3-0.2-0.7-0.2-1.1c0-0.4,0.1-0.7,0.2-1c0.1-0.3,0.3-0.6,0.6-0.9c0.3-0.3,0.6-0.5,0.9-0.6
		s0.8-0.2,1.3-0.2h2.2c0.1,0,0.2-0.1,0.2-0.2v-0.7c0-0.5-0.1-0.8-0.4-1.1s-0.7-0.4-1.2-0.4c-0.2,0-0.4,0-0.5,0.1s-0.4,0.1-0.5,0.2
		c-0.2,0.1-0.3,0.2-0.4,0.4c-0.1,0.2-0.2,0.3-0.2,0.5c0,0.1,0,0.2-0.1,0.3c-0.1,0-0.2,0-0.3,0h-0.8c-0.2,0-0.4-0.1-0.4-0.4
		c0-0.4,0.1-0.8,0.3-1.1c0.2-0.3,0.4-0.6,0.8-0.8c0.3-0.2,0.6-0.4,1-0.5c0.4-0.1,0.8-0.2,1.2-0.2c1.1,0,1.9,0.2,2.4,0.7
		s0.9,1.2,0.9,2.2v5.9c0,0.1,0,0.2-0.1,0.3C71.5,45,71.4,45,71.3,45h-0.6c-0.1,0-0.2,0-0.2-0.1s-0.1-0.2-0.2-0.3
		c0-0.1-0.1-0.1-0.2-0.1c-0.1,0-0.2,0-0.3,0.1c-0.3,0.2-0.6,0.4-1,0.5c-0.2,0.1-0.5,0.1-0.8,0.1c-0.5,0-1-0.1-1.4-0.2
		s-0.8-0.4-1-0.6C65.2,44.1,65,43.8,64.9,43.4z M66.7,41.4c-0.2,0.2-0.3,0.5-0.3,0.9c0,0.4,0.1,0.8,0.4,1c0.3,0.2,0.7,0.4,1.2,0.4
		c0.8,0,1.4-0.2,1.7-0.5c0.4-0.3,0.5-0.8,0.5-1.4v-0.6c0-0.1-0.1-0.2-0.2-0.2h-2.3C67.2,41,66.9,41.1,66.7,41.4z"/>
</g>
<g class="st3">
	<path class="st2" d="M8.3,69.9c-0.1-0.1-0.1-0.2-0.1-0.3V57.8c0-0.1,0-0.2,0.1-0.3c0.1-0.1,0.2-0.1,0.3-0.1h1c0.1,0,0.2,0,0.3,0.1
		c0.1,0.1,0.1,0.2,0.1,0.3v4.3c0,0,0,0.1,0.1,0.1s0.1,0,0.1,0l3.5-4.5c0.1-0.1,0.2-0.2,0.4-0.2h1c0.1,0,0.2,0,0.3,0.1
		c0.1,0.1,0.1,0.2,0.1,0.3c0,0.1,0,0.2-0.1,0.2l-4.1,5.2C11,63.4,11,63.4,11,63.5c0,0.1,0,0.1,0.1,0.2l4.6,5.6
		c0.1,0.1,0.1,0.2,0.1,0.3c0,0,0,0.1,0,0.2c-0.1,0.2-0.2,0.2-0.4,0.2h-1.1c-0.1,0-0.2,0-0.2,0c-0.1,0-0.1,0-0.1-0.1
		c0,0,0-0.1-0.1-0.1L10,65.1c0,0-0.1,0-0.1,0s-0.1,0-0.1,0.1v4.6c0,0.1,0,0.2-0.1,0.3C9.7,70,9.6,70,9.5,70h-1
		C8.4,70,8.4,70,8.3,69.9z"/>
	<path class="st2" d="M17.3,69.9c-0.1-0.1-0.1-0.2-0.1-0.3v-8.3c0-0.1,0-0.2,0.1-0.3c0.1-0.1,0.2-0.1,0.3-0.1h0.6
		c0.2,0,0.3,0.1,0.4,0.4c0,0,0,0.1,0,0.2c0,0.1,0,0.2,0.1,0.3s0.1,0.1,0.2,0.1c0.1,0,0.2-0.1,0.3-0.2c0.3-0.3,0.7-0.5,1.2-0.7
		c0.3-0.1,0.7-0.1,1.2-0.1h0.4c0.1,0,0.2,0,0.3,0.1c0.1,0.1,0.1,0.2,0.1,0.3v0.9c0,0.1,0,0.2-0.1,0.3c-0.1,0.1-0.2,0.1-0.3,0.1h-0.4
		c-0.4,0-0.7,0-1,0.1s-0.6,0.3-0.8,0.5c-0.3,0.2-0.5,0.5-0.6,0.9c-0.1,0.4-0.2,0.8-0.2,1.2v4.3c0,0.1,0,0.2-0.1,0.3
		C18.7,70,18.6,70,18.5,70h-0.9C17.5,70,17.4,70,17.3,69.9z"/>
	<path class="st2" d="M23.2,68.1c-0.2-0.4-0.3-0.9-0.3-1.3c0-0.4,0-0.8,0-1.4s0-1,0.1-1.4s0.1-0.7,0.3-1.1c0.4-0.9,1-1.5,1.9-1.8
		c0.4-0.2,0.9-0.3,1.5-0.3c0.7,0,1.4,0.1,1.9,0.4s1,0.7,1.3,1.2c0.3,0.5,0.4,1.2,0.4,1.9v1.2c0,0.1,0,0.2-0.1,0.2
		C29.9,66,29.9,66,29.8,66h-5.2c-0.1,0-0.2,0.1-0.2,0.2c0,0.8,0.2,1.4,0.6,1.8s0.9,0.6,1.5,0.6c0.5,0,0.9-0.1,1.2-0.3
		c0.3-0.2,0.6-0.5,0.7-0.8c0.1-0.2,0.2-0.3,0.4-0.3h0.9c0.1,0,0.2,0,0.2,0.1s0.1,0.1,0.1,0.2c0,0,0,0.1,0,0.1
		c-0.1,0.4-0.2,0.8-0.4,1.1s-0.4,0.6-0.7,0.9s-0.7,0.4-1.1,0.6c-0.4,0.1-0.8,0.2-1.3,0.2c-0.5,0-1-0.1-1.5-0.3s-0.8-0.4-1.2-0.7
		C23.6,68.9,23.3,68.5,23.2,68.1z M24.7,63.4c-0.2,0.3-0.3,0.6-0.3,1c0,0.1,0.1,0.2,0.2,0.2h3.7c0.1,0,0.2-0.1,0.2-0.2
		c0-0.4-0.1-0.8-0.3-1c-0.2-0.3-0.4-0.5-0.7-0.7c-0.3-0.2-0.7-0.2-1-0.2c-0.4,0-0.8,0.1-1.1,0.3C25.1,62.9,24.9,63.1,24.7,63.4z"/>
	<path class="st2" d="M29.8,73.7c-0.1-0.1-0.1-0.2-0.1-0.3v-0.9c0-0.1,0-0.2,0.1-0.3c0.1-0.1,0.2-0.1,0.3-0.1H31
		c0.3,0,0.6-0.1,0.8-0.2s0.4-0.3,0.6-0.6s0.2-0.5,0.2-0.9v-9.2c0-0.1,0-0.2,0.1-0.3C32.8,61,32.9,61,33,61h1c0.1,0,0.2,0,0.3,0.1
		c0.1,0.1,0.1,0.2,0.1,0.3v9.2c0,0.4-0.1,0.8-0.2,1.2s-0.4,0.7-0.7,1c-0.3,0.3-0.7,0.5-1.1,0.7s-0.8,0.3-1.3,0.3H30
		C29.9,73.8,29.9,73.7,29.8,73.7z M32.8,59.1c-0.2,0-0.3-0.1-0.3-0.3v-1.2c0-0.1,0-0.1,0.1-0.2s0.1-0.1,0.2-0.1h1.2
		c0.1,0,0.2,0,0.2,0.1s0.1,0.1,0.1,0.2v1.2c0,0.2-0.1,0.3-0.3,0.3H32.8z"/>
	<path class="st2" d="M36.8,68.1c-0.2-0.4-0.3-0.9-0.3-1.3c0-0.3,0-0.7,0-1.3c0-0.6,0-1.1,0.1-1.5s0.1-0.7,0.3-1.1
		c0.4-0.9,1-1.5,1.8-1.8c0.4-0.2,0.9-0.3,1.5-0.3c0.5,0,1,0.1,1.4,0.2s0.8,0.4,1.1,0.6c0.3,0.3,0.6,0.6,0.7,1
		c0.2,0.4,0.3,0.8,0.3,1.2c0,0.1,0,0.2-0.1,0.3s-0.1,0.1-0.2,0.1h-1c-0.1,0-0.2,0-0.2-0.1S41.9,64,41.9,64c0-0.3-0.1-0.5-0.2-0.8
		c-0.2-0.2-0.4-0.4-0.7-0.5c-0.3-0.1-0.6-0.2-1-0.2c-0.4,0-0.7,0.1-1,0.2s-0.5,0.4-0.7,0.7c-0.2,0.3-0.3,0.6-0.3,0.9
		c0,0.3,0,0.7,0,1.3V66c0,0.4,0,0.8,0.1,1.1c0.1,0.3,0.2,0.6,0.5,0.9c0.3,0.4,0.8,0.5,1.4,0.5c0.4,0,0.7-0.1,1-0.2
		c0.3-0.1,0.5-0.3,0.7-0.5c0.2-0.2,0.2-0.5,0.2-0.8c0-0.2,0.1-0.3,0.3-0.3h0.9c0.1,0,0.2,0,0.3,0.1c0.1,0.1,0.1,0.2,0.1,0.2
		c0,0.4-0.1,0.8-0.3,1.2c-0.2,0.4-0.4,0.7-0.7,1c-0.3,0.3-0.7,0.5-1.1,0.6s-0.9,0.2-1.4,0.2c-0.5,0-1-0.1-1.4-0.3s-0.8-0.4-1.1-0.7
		C37.2,68.9,37,68.5,36.8,68.1z"/>
	<path class="st2" d="M45.4,68.4c-0.1-0.3-0.2-0.7-0.2-1.1c0-0.4,0.1-0.7,0.2-1c0.1-0.3,0.3-0.6,0.6-0.9c0.3-0.3,0.6-0.5,0.9-0.6
		s0.8-0.2,1.3-0.2h2.2c0.1,0,0.2-0.1,0.2-0.2v-0.7c0-0.5-0.1-0.8-0.4-1.1s-0.7-0.4-1.2-0.4c-0.2,0-0.4,0-0.5,0.1s-0.4,0.1-0.5,0.2
		c-0.2,0.1-0.3,0.2-0.4,0.4c-0.1,0.2-0.2,0.3-0.2,0.5c0,0.1,0,0.2-0.1,0.3c-0.1,0-0.2,0-0.3,0H46c-0.2,0-0.4-0.1-0.4-0.4
		c0-0.4,0.1-0.8,0.3-1.1c0.2-0.3,0.4-0.6,0.8-0.8c0.3-0.2,0.6-0.4,1-0.5c0.4-0.1,0.8-0.2,1.2-0.2c1.1,0,1.9,0.2,2.4,0.7
		s0.9,1.2,0.9,2.2v5.9c0,0.1,0,0.2-0.1,0.3C52,70,51.9,70,51.8,70h-0.6c-0.1,0-0.2,0-0.2-0.1s-0.1-0.2-0.2-0.3
		c0-0.1-0.1-0.1-0.2-0.1c-0.1,0-0.2,0-0.3,0.1c-0.3,0.2-0.6,0.4-1,0.5c-0.2,0.1-0.5,0.1-0.8,0.1c-0.5,0-1-0.1-1.4-0.2
		s-0.8-0.4-1-0.6C45.7,69.1,45.5,68.8,45.4,68.4z M47.2,66.4c-0.2,0.2-0.3,0.5-0.3,0.9c0,0.4,0.1,0.8,0.4,1c0.3,0.2,0.7,0.4,1.2,0.4
		c0.8,0,1.4-0.2,1.7-0.5c0.4-0.3,0.5-0.8,0.5-1.4v-0.6c0-0.1-0.1-0.2-0.2-0.2h-2.3C47.7,66,47.4,66.1,47.2,66.4z"/>
	<path class="st2" d="M54.5,69.9c-0.1-0.1-0.1-0.2-0.1-0.3v-8.3c0-0.1,0-0.2,0.1-0.3c0.1-0.1,0.2-0.1,0.3-0.1h0.6
		c0.2,0,0.3,0.1,0.4,0.4c0,0,0,0.1,0,0.2c0,0.1,0,0.2,0.1,0.3S56,62,56.1,62c0.1,0,0.2-0.1,0.3-0.2c0.3-0.3,0.7-0.5,1.2-0.7
		c0.3-0.1,0.7-0.1,1.2-0.1h0.4c0.1,0,0.2,0,0.3,0.1c0.1,0.1,0.1,0.2,0.1,0.3v0.9c0,0.1,0,0.2-0.1,0.3c-0.1,0.1-0.2,0.1-0.3,0.1h-0.4
		c-0.4,0-0.7,0-1,0.1s-0.6,0.3-0.8,0.5c-0.3,0.2-0.5,0.5-0.6,0.9c-0.1,0.4-0.2,0.8-0.2,1.2v4.3c0,0.1,0,0.2-0.1,0.3
		C55.9,70,55.8,70,55.7,70h-0.9C54.7,70,54.6,70,54.5,69.9z"/>
	<path class="st2" d="M60.2,68.4c-0.1-0.3-0.2-0.7-0.2-1.1c0-0.4,0.1-0.7,0.2-1c0.1-0.3,0.3-0.6,0.6-0.9c0.3-0.3,0.6-0.5,0.9-0.6
		s0.8-0.2,1.3-0.2h2.2c0.1,0,0.2-0.1,0.2-0.2v-0.7c0-0.5-0.1-0.8-0.4-1.1s-0.7-0.4-1.2-0.4c-0.2,0-0.4,0-0.5,0.1s-0.4,0.1-0.5,0.2
		c-0.2,0.1-0.3,0.2-0.4,0.4C62.1,63,62,63.2,62,63.4c0,0.1,0,0.2-0.1,0.3c-0.1,0-0.2,0-0.3,0h-0.8c-0.2,0-0.4-0.1-0.4-0.4
		c0-0.4,0.1-0.8,0.3-1.1c0.2-0.3,0.4-0.6,0.8-0.8c0.3-0.2,0.6-0.4,1-0.5c0.4-0.1,0.8-0.2,1.2-0.2c1.1,0,1.9,0.2,2.4,0.7
		s0.9,1.2,0.9,2.2v5.9c0,0.1,0,0.2-0.1,0.3C66.8,70,66.7,70,66.6,70H66c-0.1,0-0.2,0-0.2-0.1s-0.1-0.2-0.2-0.3
		c0-0.1-0.1-0.1-0.2-0.1c-0.1,0-0.2,0-0.3,0.1c-0.3,0.2-0.6,0.4-1,0.5c-0.2,0.1-0.5,0.1-0.8,0.1c-0.5,0-1-0.1-1.4-0.2
		s-0.8-0.4-1-0.6C60.5,69.1,60.3,68.8,60.2,68.4z M62,66.4c-0.2,0.2-0.3,0.5-0.3,0.9c0,0.4,0.1,0.8,0.4,1c0.3,0.2,0.7,0.4,1.2,0.4
		c0.8,0,1.4-0.2,1.7-0.5c0.4-0.3,0.5-0.8,0.5-1.4v-0.6c0-0.1-0.1-0.2-0.2-0.2H63C62.5,66,62.2,66.1,62,66.4z"/>
	<path class="st2" d="M189.8,69.9c-0.1-0.1-0.1-0.2-0.1-0.3v-8.3c0-0.1,0-0.2,0.1-0.3c0.1-0.1,0.2-0.1,0.3-0.1h0.8
		c0.1,0,0.2,0,0.3,0.1c0,0,0,0,0.1,0.1c0,0,0.1,0.1,0.2,0.1s0.1,0.1,0.2,0.1c0.1,0,0.2,0,0.3-0.1c0,0,0.1-0.1,0.2-0.1
		c0.1-0.1,0.2-0.1,0.3-0.2s0.2-0.1,0.4-0.1c0.2-0.1,0.4-0.1,0.8-0.1c0.5,0,1,0.1,1.4,0.2c0.4,0.2,0.8,0.4,1.1,0.7
		c0.3,0.3,0.5,0.7,0.7,1.1s0.2,0.9,0.2,1.4v5.4c0,0.1,0,0.2-0.1,0.3c-0.1,0.1-0.2,0.1-0.3,0.1h-0.9c-0.1,0-0.2,0-0.2-0.1
		c-0.1-0.1-0.1-0.2-0.1-0.3v-5.4c0-0.4-0.1-0.7-0.3-1c-0.2-0.3-0.4-0.5-0.7-0.6c-0.3-0.1-0.6-0.2-1-0.2c-0.4,0-0.7,0.1-1,0.2
		c-0.3,0.1-0.5,0.3-0.7,0.6c-0.2,0.3-0.3,0.6-0.3,0.9v5.5c0,0.1,0,0.2-0.1,0.3c-0.1,0.1-0.2,0.1-0.3,0.1H190
		C190,70,189.9,70,189.8,69.9z"/>
	<path class="st2" d="M199.5,69.9c-0.1-0.1-0.1-0.2-0.1-0.3V68c0-0.1,0-0.2,0.1-0.3c0.1-0.1,0.2-0.1,0.3-0.1h1.6
		c0.1,0,0.2,0,0.2,0.1c0.1,0.1,0.1,0.2,0.1,0.3v1.6c0,0.1,0,0.2-0.1,0.3c-0.1,0.1-0.2,0.1-0.2,0.1h-1.6
		C199.7,70,199.6,70,199.5,69.9z"/>
	<path class="st2" d="M204.4,68.1c-0.2-0.4-0.3-0.9-0.3-1.3c0-0.4,0-0.8,0-1.4s0-1,0.1-1.4s0.1-0.7,0.3-1.1c0.4-0.9,1-1.5,1.9-1.8
		c0.4-0.2,0.9-0.3,1.5-0.3c0.5,0,1,0.1,1.5,0.3s0.8,0.4,1.2,0.7c0.3,0.3,0.6,0.7,0.8,1.1s0.3,0.9,0.3,1.3c0,0.4,0,0.8,0,1.4
		s0,1-0.1,1.4s-0.1,0.7-0.3,1.1c-0.4,0.9-1,1.5-1.9,1.8c-0.4,0.2-0.9,0.3-1.5,0.3c-0.5,0-1-0.1-1.5-0.3s-0.8-0.4-1.2-0.7
		C204.9,68.9,204.6,68.5,204.4,68.1z M206,63.3c-0.2,0.3-0.3,0.6-0.3,0.9c0,0.3,0,0.7,0,1.3v0.6c0,0.4,0,0.8,0.1,1.1
		c0.1,0.3,0.2,0.6,0.5,0.8c0.4,0.4,0.9,0.5,1.5,0.5c0.4,0,0.8-0.1,1.1-0.2s0.5-0.4,0.7-0.7c0.2-0.3,0.3-0.6,0.3-0.9
		c0-0.3,0-0.7,0-1.3v-0.6c0-0.4,0-0.8-0.1-1.1c-0.1-0.3-0.2-0.6-0.5-0.8c-0.4-0.4-0.8-0.5-1.5-0.5c-0.4,0-0.8,0.1-1.1,0.2
		S206.2,63.1,206,63.3z"/>
	<path class="st2" d="M213.5,69.9c-0.1-0.1-0.1-0.2-0.1-0.3V68c0-0.1,0-0.2,0.1-0.3c0.1-0.1,0.2-0.1,0.3-0.1h1.6
		c0.1,0,0.2,0,0.2,0.1s0.1,0.2,0.1,0.3v1.6c0,0.1,0,0.2-0.1,0.3c-0.1,0.1-0.2,0.1-0.2,0.1h-1.6C213.7,70,213.6,70,213.5,69.9z"/>
</g>
</svg>
